<svg width="16" height="17" viewBox="0 0 16 17" fill="none" xmlns="http://www.w3.org/2000/svg">
<path d="M15.546 4.65866L11.8412 0.954596C11.7367 0.850103 11.6127 0.767213 11.4762 0.71066C11.3397 0.654107 11.1934 0.625 11.0456 0.625C10.8979 0.625 10.7516 0.654107 10.6151 0.71066C10.4785 0.767213 10.3545 0.850103 10.25 0.954596L0.454107 10.7498C0.349614 10.8543 0.266724 10.9783 0.210172 11.1148C0.153619 11.2513 0.124512 11.3977 0.124512 11.5454C0.124512 11.6932 0.153619 11.8395 0.210172 11.976C0.266724 12.1125 0.349614 12.2365 0.454107 12.341L4.15887 16.0451C4.26334 16.1496 4.38737 16.2324 4.52388 16.289C4.66039 16.3456 4.8067 16.3747 4.95446 16.3747C5.10222 16.3747 5.24853 16.3456 5.38504 16.289C5.52155 16.2324 5.64558 16.1496 5.75005 16.0451L15.546 6.24983C15.6505 6.14536 15.7334 6.02133 15.7899 5.88482C15.8465 5.74831 15.8756 5.602 15.8756 5.45424C15.8756 5.30649 15.8465 5.16017 15.7899 5.02367C15.7334 4.88716 15.6505 4.76313 15.546 4.65866ZM4.95411 15.2498L1.25005 11.5451L3.50005 9.29506L5.35208 11.1478C5.40434 11.2001 5.46638 11.2415 5.53467 11.2698C5.60295 11.2981 5.67614 11.3126 5.75005 11.3126C5.82396 11.3126 5.89714 11.2981 5.96543 11.2698C6.03371 11.2415 6.09575 11.2001 6.14801 11.1478C6.20028 11.0955 6.24173 11.0335 6.27002 10.9652C6.2983 10.8969 6.31286 10.8237 6.31286 10.7498C6.31286 10.6759 6.2983 10.6027 6.27002 10.5345C6.24173 10.4662 6.20028 10.4041 6.14801 10.3519L4.29528 8.49983L5.75005 7.04506L7.60208 8.8978C7.70762 9.00335 7.85078 9.06264 8.00005 9.06264C8.14931 9.06264 8.29247 9.00335 8.39802 8.8978C8.50356 8.79225 8.56286 8.6491 8.56286 8.49983C8.56286 8.35056 8.50356 8.20741 8.39802 8.10186L6.54528 6.24983L8.00005 4.79506L9.85208 6.6478C9.90434 6.70006 9.96638 6.74152 10.0347 6.7698C10.103 6.79809 10.1761 6.81264 10.25 6.81264C10.324 6.81264 10.3971 6.79809 10.4654 6.7698C10.5337 6.74152 10.5958 6.70006 10.648 6.6478C10.7003 6.59554 10.7417 6.53349 10.77 6.46521C10.7983 6.39693 10.8129 6.32374 10.8129 6.24983C10.8129 6.17592 10.7983 6.10274 10.77 6.03445C10.7417 5.96617 10.7003 5.90412 10.648 5.85186L8.79528 3.99983L11.0453 1.74983L14.75 5.4546L4.95411 15.2498Z" fill="#454545"/>
</svg>
