<svg width="17" height="18" viewBox="0 0 17 18" fill="none" xmlns="http://www.w3.org/2000/svg">
<path d="M15.5176 8.51337C15.5815 8.57722 15.6322 8.65305 15.6668 8.73651C15.7014 8.81997 15.7192 8.90943 15.7192 8.99978C15.7192 9.09013 15.7014 9.17959 15.6668 9.26305C15.6322 9.34651 15.5815 9.42233 15.5176 9.48619L8.46642 16.5331C7.56374 17.4356 6.33949 17.9426 5.06299 17.9426C3.78649 17.9425 2.5623 17.4353 1.65974 16.5326C0.757174 15.63 0.250164 14.4057 0.250244 13.1292C0.250325 11.8527 0.75749 10.6285 1.66017 9.72595L10.1903 1.07033C10.8348 0.425197 11.7091 0.0624957 12.621 0.0620122C13.5328 0.0615287 14.4075 0.423303 15.0527 1.06775C15.6978 1.71219 16.0605 2.58652 16.061 3.49839C16.0615 4.41025 15.6997 5.28496 15.0552 5.93009L6.52337 14.5857C6.13591 14.9732 5.61039 15.1909 5.06243 15.1909C4.51448 15.1909 3.98896 14.9732 3.6015 14.5857C3.21403 14.1983 2.99636 13.6727 2.99636 13.1248C2.99636 12.5768 3.21403 12.0513 3.6015 11.6638L10.7601 4.39181C10.8228 4.32491 10.8983 4.27124 10.982 4.23394C11.0658 4.19664 11.1562 4.17648 11.2478 4.17463C11.3395 4.17279 11.4306 4.1893 11.5158 4.2232C11.601 4.25709 11.6786 4.30769 11.7439 4.37201C11.8093 4.43632 11.8611 4.51307 11.8963 4.59771C11.9316 4.68236 11.9496 4.7732 11.9492 4.86489C11.9488 4.95658 11.9301 5.04727 11.8941 5.13162C11.8581 5.21596 11.8057 5.29226 11.7398 5.35603L4.58032 12.6358C4.51622 12.6994 4.46527 12.775 4.43039 12.8583C4.3955 12.9416 4.37736 13.0309 4.377 13.1212C4.37664 13.2115 4.39407 13.301 4.4283 13.3845C4.46252 13.4681 4.51286 13.5441 4.57646 13.6082C4.64005 13.6723 4.71565 13.7232 4.79893 13.7581C4.88221 13.793 4.97155 13.8111 5.06185 13.8115C5.15214 13.8119 5.24162 13.7944 5.32518 13.7602C5.40874 13.726 5.48474 13.6756 5.54884 13.612L14.0799 4.96072C14.4673 4.57405 14.6853 4.0493 14.6859 3.50191C14.6864 2.95451 14.4695 2.42931 14.0829 2.04185C13.6962 1.65438 13.1714 1.43639 12.6241 1.43583C12.0767 1.43526 11.5515 1.65217 11.164 2.03884L2.63556 10.691C2.31607 11.01 2.06253 11.3888 1.88943 11.8058C1.71633 12.2227 1.62705 12.6697 1.62669 13.1212C1.62633 13.5727 1.7149 14.0198 1.88734 14.437C2.05978 14.8543 2.31271 15.2335 2.63169 15.5529C2.95068 15.8724 3.32946 16.126 3.74643 16.2991C4.1634 16.4722 4.61038 16.5615 5.06185 16.5618C5.51332 16.5622 5.96044 16.4736 6.37768 16.3012C6.79492 16.1287 7.17411 15.8758 7.49361 15.5568L14.5456 8.50994C14.675 8.38156 14.8501 8.3098 15.0323 8.31045C15.2146 8.31109 15.3891 8.38408 15.5176 8.51337Z" fill="#D8B150"/>
</svg>
