<svg width="26" height="20" viewBox="0 0 26 20" fill="none" xmlns="http://www.w3.org/2000/svg">
<path d="M25.1875 19.125C25.1875 19.3405 25.1019 19.5472 24.9495 19.6995C24.7972 19.8519 24.5905 19.9375 24.375 19.9375H1.625C1.40951 19.9375 1.20285 19.8519 1.05048 19.6995C0.898102 19.5472 0.8125 19.3405 0.8125 19.125C0.8125 18.9095 0.898102 18.7029 1.05048 18.5505C1.20285 18.3981 1.40951 18.3125 1.625 18.3125H24.375C24.5905 18.3125 24.7972 18.3981 24.9495 18.5505C25.1019 18.7029 25.1875 18.9095 25.1875 19.125ZM1.65547 7.97143C1.60714 7.80104 1.61582 7.61952 1.68017 7.45452C1.74452 7.28951 1.86103 7.15005 2.01195 7.05737L12.5745 0.557366C12.7024 0.478673 12.8498 0.437012 13 0.437012C13.1502 0.437012 13.2976 0.478673 13.4255 0.557366L23.988 7.05737C24.139 7.14994 24.2556 7.2893 24.3201 7.45424C24.3845 7.61917 24.3934 7.80066 24.3452 7.97107C24.297 8.14148 24.1945 8.29149 24.0532 8.39825C23.9119 8.50502 23.7396 8.5627 23.5625 8.56252H21.125V15.0625H22.75C22.9655 15.0625 23.1722 15.1481 23.3245 15.3005C23.4769 15.4529 23.5625 15.6595 23.5625 15.875C23.5625 16.0905 23.4769 16.2972 23.3245 16.4495C23.1722 16.6019 22.9655 16.6875 22.75 16.6875H3.25C3.03451 16.6875 2.82785 16.6019 2.67548 16.4495C2.5231 16.2972 2.4375 16.0905 2.4375 15.875C2.4375 15.6595 2.5231 15.4529 2.67548 15.3005C2.82785 15.1481 3.03451 15.0625 3.25 15.0625H4.875V8.56252H2.4375C2.26057 8.56258 2.08845 8.50489 1.9473 8.3982C1.80615 8.29151 1.70368 8.14167 1.65547 7.97143ZM14.625 14.25C14.625 14.4655 14.7106 14.6722 14.863 14.8245C15.0153 14.9769 15.222 15.0625 15.4375 15.0625C15.653 15.0625 15.8597 14.9769 16.012 14.8245C16.1644 14.6722 16.25 14.4655 16.25 14.25V9.37502C16.25 9.15953 16.1644 8.95287 16.012 8.8005C15.8597 8.64812 15.653 8.56252 15.4375 8.56252C15.222 8.56252 15.0153 8.64812 14.863 8.8005C14.7106 8.95287 14.625 9.15953 14.625 9.37502V14.25ZM9.75 14.25C9.75 14.4655 9.8356 14.6722 9.98798 14.8245C10.1403 14.9769 10.347 15.0625 10.5625 15.0625C10.778 15.0625 10.9847 14.9769 11.137 14.8245C11.2894 14.6722 11.375 14.4655 11.375 14.25V9.37502C11.375 9.15953 11.2894 8.95287 11.137 8.8005C10.9847 8.64812 10.778 8.56252 10.5625 8.56252C10.347 8.56252 10.1403 8.64812 9.98798 8.8005C9.8356 8.95287 9.75 9.15953 9.75 9.37502V14.25Z" fill="#D8B150"/>
</svg>
