<svg width="22" height="22" viewBox="0 0 22 22" fill="none" xmlns="http://www.w3.org/2000/svg">
<path d="M11 0.4375C8.91094 0.4375 6.86879 1.05698 5.13179 2.2176C3.3948 3.37822 2.04098 5.02786 1.24153 6.95791C0.442077 8.88795 0.232904 11.0117 0.64046 13.0606C1.04802 15.1096 2.054 16.9916 3.53119 18.4688C5.00838 19.946 6.89044 20.952 8.93936 21.3595C10.9883 21.7671 13.1121 21.5579 15.0421 20.7585C16.9721 19.959 18.6218 18.6052 19.7824 16.8682C20.943 15.1312 21.5625 13.0891 21.5625 11C21.5595 8.19956 20.4458 5.51466 18.4656 3.53445C16.4853 1.55424 13.8004 0.440457 11 0.4375ZM11 2.0625C12.4308 2.06308 13.8406 2.40719 15.1108 3.06588C16.381 3.72457 17.4745 4.67859 18.2993 5.84773L11 10.0616V2.0625ZM11 19.9375C9.56918 19.9369 8.15941 19.5928 6.88922 18.9341C5.61903 18.2754 4.52555 17.3214 3.70071 16.1523L19.1138 7.25437C19.7424 8.61608 20.0181 10.1141 19.9157 11.6103C19.8133 13.1066 19.336 14.553 18.5278 15.8164C17.7196 17.0797 16.6064 18.1194 15.2909 18.8396C13.9754 19.5598 12.4998 19.9373 11 19.9375Z" fill="#D8B150"/>
</svg>
