<svg width="16" height="17" viewBox="0 0 16 17" fill="none" xmlns="http://www.w3.org/2000/svg">
<path d="M15.3125 15.25H13.625V1.75H14.1875C14.3367 1.75 14.4798 1.69074 14.5852 1.58525C14.6907 1.47976 14.75 1.33668 14.75 1.1875C14.75 1.03832 14.6907 0.895242 14.5852 0.789752C14.4798 0.684263 14.3367 0.625 14.1875 0.625H1.8125C1.66332 0.625 1.52024 0.684263 1.41475 0.789752C1.30926 0.895242 1.25 1.03832 1.25 1.1875C1.25 1.33668 1.30926 1.47976 1.41475 1.58525C1.52024 1.69074 1.66332 1.75 1.8125 1.75H2.375V15.25H0.6875C0.538316 15.25 0.395242 15.3093 0.289752 15.4148C0.184263 15.5202 0.125 15.6633 0.125 15.8125C0.125 15.9617 0.184263 16.1048 0.289752 16.2102C0.395242 16.3157 0.538316 16.375 0.6875 16.375H15.3125C15.4617 16.375 15.6048 16.3157 15.7102 16.2102C15.8157 16.1048 15.875 15.9617 15.875 15.8125C15.875 15.6633 15.8157 15.5202 15.7102 15.4148C15.6048 15.3093 15.4617 15.25 15.3125 15.25ZM3.5 1.75H12.5V15.25H10.25V12.4375C10.25 12.2883 10.1907 12.1452 10.0852 12.0398C9.97976 11.9343 9.83668 11.875 9.6875 11.875H6.3125C6.16332 11.875 6.02024 11.9343 5.91475 12.0398C5.80926 12.1452 5.75 12.2883 5.75 12.4375V15.25H3.5V1.75ZM9.125 15.25H6.875V13H9.125V15.25ZM5.1875 4C5.1875 3.85082 5.24676 3.70774 5.35225 3.60225C5.45774 3.49676 5.60082 3.4375 5.75 3.4375H6.875C7.02418 3.4375 7.16726 3.49676 7.27275 3.60225C7.37824 3.70774 7.4375 3.85082 7.4375 4C7.4375 4.14918 7.37824 4.29226 7.27275 4.39775C7.16726 4.50324 7.02418 4.5625 6.875 4.5625H5.75C5.60082 4.5625 5.45774 4.50324 5.35225 4.39775C5.24676 4.29226 5.1875 4.14918 5.1875 4ZM8.5625 4C8.5625 3.85082 8.62176 3.70774 8.72725 3.60225C8.83274 3.49676 8.97582 3.4375 9.125 3.4375H10.25C10.3992 3.4375 10.5423 3.49676 10.6477 3.60225C10.7532 3.70774 10.8125 3.85082 10.8125 4C10.8125 4.14918 10.7532 4.29226 10.6477 4.39775C10.5423 4.50324 10.3992 4.5625 10.25 4.5625H9.125C8.97582 4.5625 8.83274 4.50324 8.72725 4.39775C8.62176 4.29226 8.5625 4.14918 8.5625 4ZM5.1875 6.8125C5.1875 6.66332 5.24676 6.52024 5.35225 6.41475C5.45774 6.30926 5.60082 6.25 5.75 6.25H6.875C7.02418 6.25 7.16726 6.30926 7.27275 6.41475C7.37824 6.52024 7.4375 6.66332 7.4375 6.8125C7.4375 6.96168 7.37824 7.10476 7.27275 7.21025C7.16726 7.31574 7.02418 7.375 6.875 7.375H5.75C5.60082 7.375 5.45774 7.31574 5.35225 7.21025C5.24676 7.10476 5.1875 6.96168 5.1875 6.8125ZM8.5625 6.8125C8.5625 6.66332 8.62176 6.52024 8.72725 6.41475C8.83274 6.30926 8.97582 6.25 9.125 6.25H10.25C10.3992 6.25 10.5423 6.30926 10.6477 6.41475C10.7532 6.52024 10.8125 6.66332 10.8125 6.8125C10.8125 6.96168 10.7532 7.10476 10.6477 7.21025C10.5423 7.31574 10.3992 7.375 10.25 7.375H9.125C8.97582 7.375 8.83274 7.31574 8.72725 7.21025C8.62176 7.10476 8.5625 6.96168 8.5625 6.8125ZM5.1875 9.625C5.1875 9.47582 5.24676 9.33274 5.35225 9.22725C5.45774 9.12176 5.60082 9.0625 5.75 9.0625H6.875C7.02418 9.0625 7.16726 9.12176 7.27275 9.22725C7.37824 9.33274 7.4375 9.47582 7.4375 9.625C7.4375 9.77418 7.37824 9.91726 7.27275 10.0227C7.16726 10.1282 7.02418 10.1875 6.875 10.1875H5.75C5.60082 10.1875 5.45774 10.1282 5.35225 10.0227C5.24676 9.91726 5.1875 9.77418 5.1875 9.625ZM8.5625 9.625C8.5625 9.47582 8.62176 9.33274 8.72725 9.22725C8.83274 9.12176 8.97582 9.0625 9.125 9.0625H10.25C10.3992 9.0625 10.5423 9.12176 10.6477 9.22725C10.7532 9.33274 10.8125 9.47582 10.8125 9.625C10.8125 9.77418 10.7532 9.91726 10.6477 10.0227C10.5423 10.1282 10.3992 10.1875 10.25 10.1875H9.125C8.97582 10.1875 8.83274 10.1282 8.72725 10.0227C8.62176 9.91726 8.5625 9.77418 8.5625 9.625Z" fill="#454545"/>
</svg>
