<svg width="19" height="20" viewBox="0 0 19 20" fill="none" xmlns="http://www.w3.org/2000/svg">
<path d="M17.1667 2H14.9167V1.25C14.9167 1.05109 14.8377 0.860322 14.6971 0.71967C14.5564 0.579018 14.3657 0.5 14.1667 0.5C13.9678 0.5 13.7771 0.579018 13.6364 0.71967C13.4958 0.860322 13.4167 1.05109 13.4167 1.25V2H5.91675V1.25C5.91675 1.05109 5.83773 0.860322 5.69708 0.71967C5.55643 0.579018 5.36566 0.5 5.16675 0.5C4.96784 0.5 4.77707 0.579018 4.63642 0.71967C4.49577 0.860322 4.41675 1.05109 4.41675 1.25V2H2.16675C1.76892 2 1.38739 2.15804 1.10609 2.43934C0.824783 2.72064 0.666748 3.10218 0.666748 3.5V18.5C0.666748 18.8978 0.824783 19.2794 1.10609 19.5607C1.38739 19.842 1.76892 20 2.16675 20H17.1667C17.5646 20 17.9461 19.842 18.2274 19.5607C18.5087 19.2794 18.6667 18.8978 18.6667 18.5V3.5C18.6667 3.10218 18.5087 2.72064 18.2274 2.43934C17.9461 2.15804 17.5646 2 17.1667 2ZM12.4474 14.9694C12.5171 15.0391 12.5723 15.1218 12.61 15.2128C12.6478 15.3039 12.6672 15.4015 12.6672 15.5C12.6672 15.5985 12.6478 15.6961 12.61 15.7872C12.5723 15.8782 12.5171 15.9609 12.4474 16.0306C12.3777 16.1003 12.295 16.1556 12.2039 16.1933C12.1129 16.231 12.0153 16.2504 11.9167 16.2504C11.8182 16.2504 11.7206 16.231 11.6296 16.1933C11.5385 16.1556 11.4558 16.1003 11.3861 16.0306L9.66675 14.3103L7.94737 16.0306C7.87769 16.1003 7.79497 16.1556 7.70392 16.1933C7.61288 16.231 7.51529 16.2504 7.41675 16.2504C7.3182 16.2504 7.22062 16.231 7.12958 16.1933C7.03853 16.1556 6.95581 16.1003 6.88612 16.0306C6.81644 15.9609 6.76116 15.8782 6.72345 15.7872C6.68574 15.6961 6.66633 15.5985 6.66633 15.5C6.66633 15.4015 6.68574 15.3039 6.72345 15.2128C6.76116 15.1218 6.81644 15.0391 6.88612 14.9694L8.60644 13.25L6.88612 11.5306C6.74539 11.3899 6.66633 11.199 6.66633 11C6.66633 10.801 6.74539 10.6101 6.88612 10.4694C7.02685 10.3286 7.21773 10.2496 7.41675 10.2496C7.61577 10.2496 7.80664 10.3286 7.94737 10.4694L9.66675 12.1897L11.3861 10.4694C11.4558 10.3997 11.5385 10.3444 11.6296 10.3067C11.7206 10.269 11.8182 10.2496 11.9167 10.2496C12.0153 10.2496 12.1129 10.269 12.2039 10.3067C12.295 10.3444 12.3777 10.3997 12.4474 10.4694C12.5171 10.5391 12.5723 10.6218 12.61 10.7128C12.6478 10.8039 12.6672 10.9015 12.6672 11C12.6672 11.0985 12.6478 11.1961 12.61 11.2872C12.5723 11.3782 12.5171 11.4609 12.4474 11.5306L10.7271 13.25L12.4474 14.9694ZM17.1667 6.5H2.16675V3.5H4.41675V4.25C4.41675 4.44891 4.49577 4.63968 4.63642 4.78033C4.77707 4.92098 4.96784 5 5.16675 5C5.36566 5 5.55643 4.92098 5.69708 4.78033C5.83773 4.63968 5.91675 4.44891 5.91675 4.25V3.5H13.4167V4.25C13.4167 4.44891 13.4958 4.63968 13.6364 4.78033C13.7771 4.92098 13.9678 5 14.1667 5C14.3657 5 14.5564 4.92098 14.6971 4.78033C14.8377 4.63968 14.9167 4.44891 14.9167 4.25V3.5H17.1667V6.5Z" fill="#D8B150"/>
</svg>
