<svg width="18" height="14" viewBox="0 0 18 14" fill="none" xmlns="http://www.w3.org/2000/svg">
<path d="M16.875 5.8125H16.1156L14.1623 1.41797C14.0739 1.21914 13.9298 1.05022 13.7473 0.931663C13.5649 0.813105 13.352 0.750003 13.1344 0.75H4.86562C4.64804 0.750003 4.43512 0.813105 4.25266 0.931663C4.07021 1.05022 3.92605 1.21914 3.83766 1.41797L1.88437 5.8125H1.125C0.975816 5.8125 0.832742 5.87176 0.727252 5.97725C0.621763 6.08274 0.5625 6.22582 0.5625 6.375C0.5625 6.52418 0.621763 6.66726 0.727252 6.77275C0.832742 6.87824 0.975816 6.9375 1.125 6.9375H1.6875V12.5625C1.6875 12.8609 1.80603 13.147 2.017 13.358C2.22798 13.569 2.51413 13.6875 2.8125 13.6875H4.5C4.79837 13.6875 5.08452 13.569 5.2955 13.358C5.50647 13.147 5.625 12.8609 5.625 12.5625V11.4375H12.375V12.5625C12.375 12.8609 12.4935 13.147 12.7045 13.358C12.9155 13.569 13.2016 13.6875 13.5 13.6875H15.1875C15.4859 13.6875 15.772 13.569 15.983 13.358C16.194 13.147 16.3125 12.8609 16.3125 12.5625V6.9375H16.875C17.0242 6.9375 17.1673 6.87824 17.2727 6.77275C17.3782 6.66726 17.4375 6.52418 17.4375 6.375C17.4375 6.22582 17.3782 6.08274 17.2727 5.97725C17.1673 5.87176 17.0242 5.8125 16.875 5.8125ZM4.86562 1.875H13.1344L14.8845 5.8125H3.11555L4.86562 1.875ZM15.1875 12.5625H13.5V10.875C13.5 10.7258 13.4407 10.5827 13.3352 10.4773C13.2298 10.3718 13.0867 10.3125 12.9375 10.3125H5.0625C4.91332 10.3125 4.77024 10.3718 4.66475 10.4773C4.55926 10.5827 4.5 10.7258 4.5 10.875V12.5625H2.8125V6.9375H15.1875V12.5625Z" fill="#454545"/>
</svg>
