<svg width="31" height="32" viewBox="0 0 31 32" fill="none" xmlns="http://www.w3.org/2000/svg">
<path d="M15.9844 3C12.7739 3.00364 9.69583 4.32177 7.42565 6.66518C5.15546 9.0086 3.87853 12.1859 3.875 15.5V26C3.875 26.5304 4.07913 27.0391 4.44248 27.4142C4.80583 27.7893 5.29864 28 5.8125 28H15.9844C19.196 28 22.276 26.683 24.547 24.3388C26.8179 21.9946 28.0938 18.8152 28.0938 15.5C28.0938 12.1848 26.8179 9.00537 24.547 6.66117C22.276 4.31696 19.196 3 15.9844 3ZM15.9844 26H5.8125V15.5C5.8125 13.4233 6.40907 11.3932 7.52677 9.66651C8.64447 7.9398 10.2331 6.59399 12.0918 5.79926C13.9504 5.00454 15.9957 4.79661 17.9688 5.20175C19.942 5.6069 21.7544 6.60693 23.177 8.07538C24.5995 9.54383 25.5683 11.4148 25.9608 13.4516C26.3533 15.4884 26.1518 17.5996 25.382 19.5182C24.6121 21.4368 23.3083 23.0767 21.6356 24.2304C19.9628 25.3842 17.9962 26 15.9844 26Z" fill="white"/>
</svg>
