<svg width="22" height="22" viewBox="0 0 22 22" fill="none" xmlns="http://www.w3.org/2000/svg">
<path d="M11 0.4375C8.91094 0.4375 6.86879 1.05698 5.13179 2.2176C3.3948 3.37822 2.04098 5.02786 1.24153 6.95791C0.442077 8.88795 0.232904 11.0117 0.64046 13.0606C1.04802 15.1096 2.054 16.9916 3.53119 18.4688C5.00838 19.946 6.89044 20.952 8.93936 21.3595C10.9883 21.7671 13.1121 21.5579 15.0421 20.7585C16.9721 19.959 18.6218 18.6052 19.7824 16.8682C20.943 15.1312 21.5625 13.0891 21.5625 11C21.5595 8.19956 20.4458 5.51466 18.4656 3.53445C16.4853 1.55424 13.8004 0.440457 11 0.4375ZM11 17.5C10.759 17.5 10.5233 17.4285 10.3229 17.2946C10.1225 17.1607 9.96627 16.9703 9.87403 16.7476C9.78178 16.5249 9.75765 16.2799 9.80467 16.0435C9.8517 15.8071 9.96777 15.5899 10.1382 15.4195C10.3087 15.249 10.5258 15.1329 10.7622 15.0859C10.9987 15.0389 11.2437 15.063 11.4664 15.1553C11.6891 15.2475 11.8794 15.4037 12.0134 15.6041C12.1473 15.8046 12.2188 16.0402 12.2188 16.2812C12.2188 16.6045 12.0903 16.9145 11.8618 17.143C11.6332 17.3716 11.3232 17.5 11 17.5ZM11.8125 12.5519V12.625C11.8125 12.8405 11.7269 13.0472 11.5745 13.1995C11.4222 13.3519 11.2155 13.4375 11 13.4375C10.7845 13.4375 10.5779 13.3519 10.4255 13.1995C10.2731 13.0472 10.1875 12.8405 10.1875 12.625V11.8125C10.1875 11.597 10.2731 11.3903 10.4255 11.238C10.5779 11.0856 10.7845 11 11 11C12.3437 11 13.4375 10.0859 13.4375 8.96875C13.4375 7.85156 12.3437 6.9375 11 6.9375C9.65633 6.9375 8.5625 7.85156 8.5625 8.96875V9.375C8.5625 9.59049 8.4769 9.79715 8.32453 9.94952C8.17215 10.1019 7.96549 10.1875 7.75 10.1875C7.53452 10.1875 7.32785 10.1019 7.17548 9.94952C7.02311 9.79715 6.9375 9.59049 6.9375 9.375V8.96875C6.9375 6.95273 8.75954 5.3125 11 5.3125C13.2405 5.3125 15.0625 6.95273 15.0625 8.96875C15.0625 10.7339 13.665 12.2116 11.8125 12.5519Z" fill="#D8B150"/>
</svg>
