<svg width="20" height="21" viewBox="0 0 20 21" fill="none" xmlns="http://www.w3.org/2000/svg">
<path d="M19.75 10.1877V19.9377C19.75 20.1532 19.6644 20.3599 19.512 20.5122C19.3597 20.6646 19.153 20.7502 18.9375 20.7502H13.25C13.0345 20.7502 12.8278 20.6646 12.6755 20.5122C12.5231 20.3599 12.4375 20.1532 12.4375 19.9377V14.6565C12.4375 14.5487 12.3947 14.4454 12.3185 14.3692C12.2423 14.293 12.139 14.2502 12.0312 14.2502H7.96875C7.86101 14.2502 7.75767 14.293 7.68149 14.3692C7.6053 14.4454 7.5625 14.5487 7.5625 14.6565V19.9377C7.5625 20.1532 7.4769 20.3599 7.32452 20.5122C7.17215 20.6646 6.96549 20.7502 6.75 20.7502H1.0625C0.847012 20.7502 0.640349 20.6646 0.487976 20.5122C0.335603 20.3599 0.25 20.1532 0.25 19.9377V10.1877C0.2502 9.75682 0.421536 9.34365 0.726328 9.03905L8.85133 0.914052C9.15604 0.609535 9.56921 0.438477 10 0.438477C10.4308 0.438477 10.844 0.609535 11.1487 0.914052L19.2737 9.03905C19.5785 9.34365 19.7498 9.75682 19.75 10.1877Z" fill="#D8B150"/>
</svg>
