<svg width="20" height="17" viewBox="0 0 20 17" fill="none" xmlns="http://www.w3.org/2000/svg">
<path d="M18.75 15.2498H17.5V6.49984C17.5 6.16832 17.3683 5.85037 17.1339 5.61595C16.8995 5.38153 16.5815 5.24984 16.25 5.24984H11.25V1.49984C11.2501 1.27348 11.1888 1.05133 11.0726 0.857102C10.9563 0.662872 10.7895 0.503853 10.59 0.397016C10.3904 0.290179 10.1656 0.239534 9.93951 0.250488C9.71342 0.261442 9.49454 0.333583 9.30625 0.459211L3.05625 4.62484C2.8848 4.73923 2.74429 4.89424 2.64724 5.07607C2.55019 5.25791 2.49961 5.46091 2.5 5.66702V15.2498H1.25C1.08424 15.2498 0.925268 15.3157 0.808058 15.4329C0.690848 15.5501 0.625 15.7091 0.625 15.8748C0.625 16.0406 0.690848 16.1996 0.808058 16.3168C0.925268 16.434 1.08424 16.4998 1.25 16.4998H18.75C18.9158 16.4998 19.0747 16.434 19.1919 16.3168C19.3092 16.1996 19.375 16.0406 19.375 15.8748C19.375 15.7091 19.3092 15.5501 19.1919 15.4329C19.0747 15.3157 18.9158 15.2498 18.75 15.2498ZM16.25 6.49984V15.2498H11.25V6.49984H16.25ZM3.75 5.66702L10 1.49984V15.2498H3.75V5.66702ZM8.75 7.74984V8.99984C8.75 9.1656 8.68415 9.32457 8.56694 9.44178C8.44973 9.55899 8.29076 9.62484 8.125 9.62484C7.95924 9.62484 7.80027 9.55899 7.68306 9.44178C7.56585 9.32457 7.5 9.1656 7.5 8.99984V7.74984C7.5 7.58408 7.56585 7.42511 7.68306 7.3079C7.80027 7.19069 7.95924 7.12484 8.125 7.12484C8.29076 7.12484 8.44973 7.19069 8.56694 7.3079C8.68415 7.42511 8.75 7.58408 8.75 7.74984ZM6.25 7.74984V8.99984C6.25 9.1656 6.18415 9.32457 6.06694 9.44178C5.94973 9.55899 5.79076 9.62484 5.625 9.62484C5.45924 9.62484 5.30027 9.55899 5.18306 9.44178C5.06585 9.32457 5 9.1656 5 8.99984V7.74984C5 7.58408 5.06585 7.42511 5.18306 7.3079C5.30027 7.19069 5.45924 7.12484 5.625 7.12484C5.79076 7.12484 5.94973 7.19069 6.06694 7.3079C6.18415 7.42511 6.25 7.58408 6.25 7.74984ZM6.25 12.1248V13.3748C6.25 13.5406 6.18415 13.6996 6.06694 13.8168C5.94973 13.934 5.79076 13.9998 5.625 13.9998C5.45924 13.9998 5.30027 13.934 5.18306 13.8168C5.06585 13.6996 5 13.5406 5 13.3748V12.1248C5 11.9591 5.06585 11.8001 5.18306 11.6829C5.30027 11.5657 5.45924 11.4998 5.625 11.4998C5.79076 11.4998 5.94973 11.5657 6.06694 11.6829C6.18415 11.8001 6.25 11.9591 6.25 12.1248ZM8.75 12.1248V13.3748C8.75 13.5406 8.68415 13.6996 8.56694 13.8168C8.44973 13.934 8.29076 13.9998 8.125 13.9998C7.95924 13.9998 7.80027 13.934 7.68306 13.8168C7.56585 13.6996 7.5 13.5406 7.5 13.3748V12.1248C7.5 11.9591 7.56585 11.8001 7.68306 11.6829C7.80027 11.5657 7.95924 11.4998 8.125 11.4998C8.29076 11.4998 8.44973 11.5657 8.56694 11.6829C8.68415 11.8001 8.75 11.9591 8.75 12.1248Z" fill="#131313"/>
</svg>
