<svg width="22" height="24" viewBox="0 0 22 24" fill="none" xmlns="http://www.w3.org/2000/svg">
<path d="M21.5625 11.0002V19.1252C21.5625 20.2026 21.1345 21.2359 20.3726 21.9978C19.6108 22.7596 18.5774 23.1877 17.5 23.1877H11.8125C11.597 23.1877 11.3904 23.102 11.238 22.9497C11.0856 22.7973 11 22.5906 11 22.3752C11 22.1597 11.0856 21.953 11.238 21.8006C11.3904 21.6483 11.597 21.5627 11.8125 21.5627H17.5C18.1465 21.5627 18.7665 21.3058 19.2236 20.8487C19.6807 20.3916 19.9375 19.7716 19.9375 19.1252H17.5C16.8535 19.1252 16.2335 18.8683 15.7764 18.4112C15.3193 17.9541 15.0625 17.3341 15.0625 16.6877V12.6252C15.0625 11.9787 15.3193 11.3587 15.7764 10.9016C16.2335 10.4445 16.8535 10.1877 17.5 10.1877H19.902C19.7482 8.4986 19.117 6.88817 18.0822 5.54446C17.0473 4.20075 15.6514 3.17924 14.0577 2.59924C12.4639 2.01924 10.738 1.9047 9.08153 2.269C7.42509 2.63329 5.90649 3.46139 4.70313 4.65656C3.20676 6.13319 2.28383 8.09352 2.09906 10.1877H4.5C5.14647 10.1877 5.76645 10.4445 6.22357 10.9016C6.68069 11.3587 6.9375 11.9787 6.9375 12.6252V16.6877C6.9375 17.3341 6.68069 17.9541 6.22357 18.4112C5.76645 18.8683 5.14647 19.1252 4.5 19.1252H2.875C2.22854 19.1252 1.60855 18.8683 1.15143 18.4112C0.694307 17.9541 0.4375 17.3341 0.4375 16.6877V11.0002C0.439778 8.90786 1.06274 6.86328 2.22754 5.1252C3.39234 3.38711 5.04661 2.03367 6.98096 1.23619C8.91531 0.438699 11.0428 0.233018 13.0941 0.645177C15.1454 1.05734 17.0283 2.06881 18.5045 3.55156C19.4791 4.53093 20.2509 5.69299 20.7756 6.97116C21.3004 8.24932 21.5678 9.61847 21.5625 11.0002Z" fill="#D89F13" fill-opacity="0.9"/>
</svg>
