<svg width="22" height="18" viewBox="0 0 22 18" fill="none" xmlns="http://www.w3.org/2000/svg">
<path d="M20.75 0.875H1.25C1.03451 0.875 0.827849 0.960603 0.675476 1.11298C0.523102 1.26535 0.4375 1.47201 0.4375 1.6875V15.5C0.4375 15.931 0.608705 16.3443 0.913451 16.649C1.2182 16.9538 1.63152 17.125 2.0625 17.125H19.9375C20.3685 17.125 20.7818 16.9538 21.0865 16.649C21.3913 16.3443 21.5625 15.931 21.5625 15.5V1.6875C21.5625 1.47201 21.4769 1.26535 21.3245 1.11298C21.1722 0.960603 20.9655 0.875 20.75 0.875ZM19.9375 15.5H2.0625V3.53492L10.4505 11.2242C10.6004 11.3618 10.7965 11.4382 11 11.4382C11.2035 11.4382 11.3996 11.3618 11.5495 11.2242L19.9375 3.53492V15.5Z" fill="#D8B150"/>
</svg>
