<svg width="14" height="17" viewBox="0 0 14 17" fill="none" xmlns="http://www.w3.org/2000/svg">
<path d="M12.9038 6.729C12.9038 12.0424 7 16.1751 7 16.1751C7 16.1751 1.09619 12.0424 1.09619 6.729C1.09619 5.16322 1.7182 3.66156 2.82538 2.55438C3.93256 1.4472 5.43421 0.825195 7 0.825195C8.56579 0.825195 10.0674 1.4472 11.1746 2.55438C12.2818 3.66156 12.9038 5.16322 12.9038 6.729Z" stroke="#454545" stroke-width="1.25" stroke-linecap="round" stroke-linejoin="round"/>
<path d="M7.00068 9.09121C8.30492 9.09121 9.36221 8.03392 9.36221 6.72969C9.36221 5.42545 8.30492 4.36816 7.00068 4.36816C5.69645 4.36816 4.63916 5.42545 4.63916 6.72969C4.63916 8.03392 5.69645 9.09121 7.00068 9.09121Z" stroke="#454545" stroke-width="1.25" stroke-linecap="round" stroke-linejoin="round"/>
</svg>
