<svg width="24" height="20" viewBox="0 0 24 20" fill="none" xmlns="http://www.w3.org/2000/svg">
<path d="M21.5625 4.7882V1.6875C21.5625 1.25652 21.3913 0.843198 21.0865 0.538451C20.7818 0.233705 20.3685 0.0625 19.9375 0.0625H2.0625C1.63152 0.0625 1.2182 0.233705 0.913451 0.538451C0.608705 0.843198 0.4375 1.25652 0.4375 1.6875V14.6875C0.4375 15.1185 0.608705 15.5318 0.913451 15.8365C1.2182 16.1413 1.63152 16.3125 2.0625 16.3125H14.25V18.75C14.2487 18.8932 14.2853 19.0343 14.3561 19.1588C14.4269 19.2833 14.5293 19.387 14.6531 19.4591C14.7768 19.5313 14.9174 19.5695 15.0607 19.5698C15.2039 19.5701 15.3447 19.5326 15.4687 19.4609L17.9062 18.0655L20.3437 19.4609C20.4678 19.5326 20.6086 19.5701 20.7518 19.5698C20.8951 19.5695 21.0357 19.5313 21.1594 19.4591C21.2832 19.387 21.3856 19.2833 21.4564 19.1588C21.5272 19.0343 21.5638 18.8932 21.5625 18.75V12.3993C22.0761 11.9074 22.4848 11.3167 22.7641 10.6627C23.0433 10.0087 23.1873 9.30489 23.1873 8.59375C23.1873 7.88261 23.0433 7.17883 22.7641 6.52481C22.4848 5.87078 22.0761 5.28005 21.5625 4.7882ZM11 10.625H5.3125C5.09701 10.625 4.89035 10.5394 4.73798 10.387C4.5856 10.2347 4.5 10.028 4.5 9.8125C4.5 9.59701 4.5856 9.39035 4.73798 9.23797C4.89035 9.0856 5.09701 9 5.3125 9H11C11.2155 9 11.4222 9.0856 11.5745 9.23797C11.7269 9.39035 11.8125 9.59701 11.8125 9.8125C11.8125 10.028 11.7269 10.2347 11.5745 10.387C11.4222 10.5394 11.2155 10.625 11 10.625ZM11 7.375H5.3125C5.09701 7.375 4.89035 7.2894 4.73798 7.13702C4.5856 6.98465 4.5 6.77799 4.5 6.5625C4.5 6.34701 4.5856 6.14035 4.73798 5.98798C4.89035 5.8356 5.09701 5.75 5.3125 5.75H11C11.2155 5.75 11.4222 5.8356 11.5745 5.98798C11.7269 6.14035 11.8125 6.34701 11.8125 6.5625C11.8125 6.77799 11.7269 6.98465 11.5745 7.13702C11.4222 7.2894 11.2155 7.375 11 7.375ZM19.9375 17.3495L18.3125 16.4191C18.1897 16.349 18.0507 16.312 17.9093 16.312C17.7679 16.312 17.6289 16.349 17.5061 16.4191L15.8811 17.3495V13.4687C16.5246 13.7376 17.215 13.876 17.9123 13.876C18.6097 13.876 19.3001 13.7376 19.9436 13.4687L19.9375 17.3495ZM17.9062 12.25C17.1831 12.25 16.4762 12.0356 15.8749 11.6338C15.2737 11.2321 14.805 10.661 14.5283 9.99294C14.2516 9.32484 14.1792 8.58969 14.3203 7.88045C14.4613 7.17121 14.8096 6.51973 15.3209 6.00839C15.8322 5.49706 16.4837 5.14883 17.1929 5.00775C17.9022 4.86668 18.6373 4.93908 19.3054 5.21581C19.9735 5.49255 20.5446 5.96118 20.9463 6.56245C21.3481 7.16371 21.5625 7.87061 21.5625 8.59375C21.5625 9.07389 21.4679 9.54934 21.2842 9.99294C21.1004 10.4365 20.8311 10.8396 20.4916 11.1791C20.1521 11.5186 19.749 11.7879 19.3054 11.9717C18.8618 12.1554 18.3864 12.25 17.9062 12.25Z" fill="#D8B150"/>
</svg>
