<svg width="27" height="18" viewBox="0 0 27 18" fill="none" xmlns="http://www.w3.org/2000/svg">
<path d="M17.204 15.8687C17.2839 15.9913 17.3293 16.1332 17.3352 16.2794C17.3412 16.4257 17.3075 16.5708 17.2378 16.6995C17.1681 16.8282 17.065 16.9357 16.9392 17.0106C16.8135 17.0855 16.6699 17.125 16.5235 17.125H1.53896C1.39261 17.125 1.24897 17.0855 1.12324 17.0106C0.997501 16.9357 0.894331 16.8282 0.824628 16.6995C0.754924 16.5708 0.721276 16.4257 0.727237 16.2794C0.733198 16.1332 0.778548 15.9913 0.858495 15.8687C2.0022 14.1083 3.68446 12.7648 5.65428 12.0388C4.56532 11.3138 3.73858 10.2577 3.2963 9.02649C2.85402 7.79532 2.81969 6.4545 3.19838 5.20231C3.57708 3.95011 4.34869 2.85303 5.39912 2.07329C6.44955 1.29356 7.72303 0.872559 9.03123 0.872559C10.3394 0.872559 11.6129 1.29356 12.6633 2.07329C13.7138 2.85303 14.4854 3.95011 14.8641 5.20231C15.2428 6.4545 15.2084 7.79532 14.7662 9.02649C14.3239 10.2577 13.4971 11.3138 12.4082 12.0388C14.378 12.7648 16.0603 14.1083 17.204 15.8687ZM26.1323 15.8535C24.9883 14.1004 23.3098 12.7627 21.3457 12.0388C22.6312 11.1728 23.5385 9.8495 23.8828 8.33819C24.227 6.82689 23.9825 5.24119 23.1988 3.90386C22.4151 2.56652 21.1513 1.57809 19.6646 1.13973C18.1778 0.70138 16.5799 0.846061 15.1961 1.54433C15.1432 1.57165 15.0969 1.61027 15.0606 1.65746C15.0242 1.70464 14.9987 1.75924 14.9858 1.81738C14.9729 1.87552 14.973 1.93579 14.986 1.99391C14.999 2.05203 15.0246 2.10658 15.061 2.1537C16.09 3.43726 16.6809 5.01659 16.7473 6.66035C16.8136 8.30411 16.3519 9.92593 15.4297 11.2882C15.3701 11.3773 15.348 11.4862 15.3684 11.5914C15.3887 11.6966 15.4498 11.7895 15.5383 11.8499C16.7407 12.6891 17.7701 13.7522 18.57 14.981C18.8926 15.4751 19.0244 16.0697 18.9407 16.6538C18.9313 16.7119 18.9346 16.7713 18.9504 16.828C18.9662 16.8847 18.9942 16.9373 19.0324 16.9821C19.0705 17.0269 19.118 17.0629 19.1714 17.0876C19.2248 17.1123 19.283 17.1251 19.3419 17.125H25.4661C25.645 17.1251 25.8189 17.0661 25.9609 16.9572C26.1028 16.8483 26.2049 16.6956 26.2512 16.5228C26.2794 16.4091 26.2834 16.2908 26.2629 16.1755C26.2425 16.0602 26.198 15.9505 26.1323 15.8535Z" fill="#D8B150"/>
</svg>
