<svg width="23" height="23" viewBox="0 0 23 23" fill="none" xmlns="http://www.w3.org/2000/svg">
<path d="M20.4954 3.00486C19.2048 1.71249 17.5164 0.892637 15.7027 0.677611C13.889 0.462585 12.0557 0.864924 10.4987 1.8197C8.94175 2.77448 7.75187 4.22601 7.12109 5.94006C6.49032 7.6541 6.45545 9.53068 7.02212 11.267L1.41384 16.8753C1.26228 17.0256 1.14213 17.2046 1.06036 17.4018C0.978585 17.599 0.936826 17.8104 0.937508 18.0239V20.9378C0.937508 21.3687 1.10871 21.7821 1.41346 22.0868C1.71821 22.3915 2.13153 22.5628 2.56251 22.5628H5.81251C6.028 22.5628 6.23466 22.4771 6.38703 22.3248C6.53941 22.1724 6.62501 21.9657 6.62501 21.7503V20.1253H8.25001C8.4655 20.1253 8.67216 20.0396 8.82453 19.8873C8.97691 19.7349 9.06251 19.5282 9.06251 19.3128V17.6878H10.6875C10.7942 17.6878 10.8999 17.6669 10.9986 17.6261C11.0972 17.5853 11.1868 17.5255 11.2624 17.4501L12.2333 16.4781C13.046 16.7425 13.8954 16.8765 14.75 16.8753H14.7602C16.3663 16.8733 17.9359 16.3954 19.2705 15.5018C20.6052 14.6083 21.645 13.3392 22.2588 11.8549C22.8725 10.3706 23.0325 8.73776 22.7187 7.16257C22.4048 5.58738 21.6312 4.14055 20.4954 3.00486ZM16.7813 8.344C16.4599 8.344 16.1457 8.2487 15.8785 8.07014C15.6112 7.89158 15.4029 7.63779 15.28 7.34086C15.157 7.04393 15.1248 6.7172 15.1875 6.40198C15.2502 6.08676 15.4049 5.79721 15.6322 5.56995C15.8595 5.34269 16.149 5.18793 16.4642 5.12522C16.7795 5.06252 17.1062 5.0947 17.4031 5.2177C17.7 5.34069 17.9538 5.54897 18.1324 5.8162C18.311 6.08343 18.4063 6.39761 18.4063 6.719C18.4063 7.14998 18.2351 7.5633 17.9303 7.86805C17.6256 8.1728 17.2122 8.344 16.7813 8.344Z" fill="#D8B150"/>
</svg>
