<svg width="26" height="20" viewBox="0 0 26 20" fill="none" xmlns="http://www.w3.org/2000/svg">
<path d="M24.375 18.125H23.5625V4.3125C23.5625 4.09701 23.4769 3.89035 23.3245 3.73798C23.1722 3.5856 22.9655 3.5 22.75 3.5H18.6875V1.0625C18.6875 0.847012 18.6019 0.640349 18.4495 0.487976C18.2972 0.335603 18.0905 0.25 17.875 0.25H8.125C7.90951 0.25 7.70285 0.335603 7.55048 0.487976C7.3981 0.640349 7.3125 0.847012 7.3125 1.0625V6.75H3.25C3.03451 6.75 2.82785 6.8356 2.67548 6.98798C2.5231 7.14035 2.4375 7.34701 2.4375 7.5625V18.125H1.625C1.40951 18.125 1.20285 18.2106 1.05048 18.363C0.898102 18.5153 0.8125 18.722 0.8125 18.9375C0.8125 19.153 0.898102 19.3597 1.05048 19.512C1.20285 19.6644 1.40951 19.75 1.625 19.75H24.375C24.5905 19.75 24.7972 19.6644 24.9495 19.512C25.1019 19.3597 25.1875 19.153 25.1875 18.9375C25.1875 18.722 25.1019 18.5153 24.9495 18.363C24.7972 18.2106 24.5905 18.125 24.375 18.125ZM8.125 14.875H6.5C6.28451 14.875 6.07785 14.7894 5.92548 14.637C5.7731 14.4847 5.6875 14.278 5.6875 14.0625C5.6875 13.847 5.7731 13.6403 5.92548 13.488C6.07785 13.3356 6.28451 13.25 6.5 13.25H8.125C8.34049 13.25 8.54715 13.3356 8.69952 13.488C8.8519 13.6403 8.9375 13.847 8.9375 14.0625C8.9375 14.278 8.8519 14.4847 8.69952 14.637C8.54715 14.7894 8.34049 14.875 8.125 14.875ZM8.125 11.625H6.5C6.28451 11.625 6.07785 11.5394 5.92548 11.387C5.7731 11.2347 5.6875 11.028 5.6875 10.8125C5.6875 10.597 5.7731 10.3903 5.92548 10.238C6.07785 10.0856 6.28451 10 6.5 10H8.125C8.34049 10 8.54715 10.0856 8.69952 10.238C8.8519 10.3903 8.9375 10.597 8.9375 10.8125C8.9375 11.028 8.8519 11.2347 8.69952 11.387C8.54715 11.5394 8.34049 11.625 8.125 11.625ZM14.625 18.125H11.375V14.0625H14.625V18.125ZM13.8125 11.625H12.1875C11.972 11.625 11.7653 11.5394 11.613 11.387C11.4606 11.2347 11.375 11.028 11.375 10.8125C11.375 10.597 11.4606 10.3903 11.613 10.238C11.7653 10.0856 11.972 10 12.1875 10H13.8125C14.028 10 14.2347 10.0856 14.387 10.238C14.5394 10.3903 14.625 10.597 14.625 10.8125C14.625 11.028 14.5394 11.2347 14.387 11.387C14.2347 11.5394 14.028 11.625 13.8125 11.625ZM13.8125 8.375H12.1875C11.972 8.375 11.7653 8.2894 11.613 8.13702C11.4606 7.98465 11.375 7.77799 11.375 7.5625C11.375 7.34701 11.4606 7.14035 11.613 6.98798C11.7653 6.8356 11.972 6.75 12.1875 6.75H13.8125C14.028 6.75 14.2347 6.8356 14.387 6.98798C14.5394 7.14035 14.625 7.34701 14.625 7.5625C14.625 7.77799 14.5394 7.98465 14.387 8.13702C14.2347 8.2894 14.028 8.375 13.8125 8.375ZM13.8125 5.125H12.1875C11.972 5.125 11.7653 5.0394 11.613 4.88702C11.4606 4.73465 11.375 4.52799 11.375 4.3125C11.375 4.09701 11.4606 3.89035 11.613 3.73798C11.7653 3.5856 11.972 3.5 12.1875 3.5H13.8125C14.028 3.5 14.2347 3.5856 14.387 3.73798C14.5394 3.89035 14.625 4.09701 14.625 4.3125C14.625 4.52799 14.5394 4.73465 14.387 4.88702C14.2347 5.0394 14.028 5.125 13.8125 5.125ZM19.5 14.875H17.875C17.6595 14.875 17.4528 14.7894 17.3005 14.637C17.1481 14.4847 17.0625 14.278 17.0625 14.0625C17.0625 13.847 17.1481 13.6403 17.3005 13.488C17.4528 13.3356 17.6595 13.25 17.875 13.25H19.5C19.7155 13.25 19.9222 13.3356 20.0745 13.488C20.2269 13.6403 20.3125 13.847 20.3125 14.0625C20.3125 14.278 20.2269 14.4847 20.0745 14.637C19.9222 14.7894 19.7155 14.875 19.5 14.875ZM19.5 11.625H17.875C17.6595 11.625 17.4528 11.5394 17.3005 11.387C17.1481 11.2347 17.0625 11.028 17.0625 10.8125C17.0625 10.597 17.1481 10.3903 17.3005 10.238C17.4528 10.0856 17.6595 10 17.875 10H19.5C19.7155 10 19.9222 10.0856 20.0745 10.238C20.2269 10.3903 20.3125 10.597 20.3125 10.8125C20.3125 11.028 20.2269 11.2347 20.0745 11.387C19.9222 11.5394 19.7155 11.625 19.5 11.625ZM19.5 8.375H17.875C17.6595 8.375 17.4528 8.2894 17.3005 8.13702C17.1481 7.98465 17.0625 7.77799 17.0625 7.5625C17.0625 7.34701 17.1481 7.14035 17.3005 6.98798C17.4528 6.8356 17.6595 6.75 17.875 6.75H19.5C19.7155 6.75 19.9222 6.8356 20.0745 6.98798C20.2269 7.14035 20.3125 7.34701 20.3125 7.5625C20.3125 7.77799 20.2269 7.98465 20.0745 8.13702C19.9222 8.2894 19.7155 8.375 19.5 8.375Z" fill="#D8B150"/>
</svg>
