<svg width="23" height="18" viewBox="0 0 23 18" fill="none" xmlns="http://www.w3.org/2000/svg">
<path d="M20.4375 0.0625H2.5625C2.13152 0.0625 1.7182 0.233705 1.41345 0.538451C1.1087 0.843198 0.9375 1.25652 0.9375 1.6875V17.125C0.937574 17.2635 0.973041 17.3996 1.04053 17.5206C1.10803 17.6415 1.20531 17.7431 1.32314 17.8159C1.44097 17.8887 1.57544 17.9301 1.71378 17.9363C1.85213 17.9424 1.98975 17.9131 2.11359 17.8512L5 16.408L7.88641 17.8512C7.99929 17.9077 8.12378 17.9371 8.25 17.9371C8.37622 17.9371 8.50071 17.9077 8.61359 17.8512L11.5 16.408L14.3864 17.8512C14.4993 17.9077 14.6238 17.9371 14.75 17.9371C14.8762 17.9371 15.0007 17.9077 15.1136 17.8512L18 16.408L20.8864 17.8512C21.0102 17.9131 21.1479 17.9424 21.2862 17.9363C21.4246 17.9301 21.559 17.8887 21.6769 17.8159C21.7947 17.7431 21.892 17.6415 21.9595 17.5206C22.027 17.3996 22.0624 17.2635 22.0625 17.125V1.6875C22.0625 1.25652 21.8913 0.843198 21.5865 0.538451C21.2818 0.233705 20.8685 0.0625 20.4375 0.0625ZM16.375 10.625H6.625C6.40951 10.625 6.20285 10.5394 6.05048 10.387C5.8981 10.2347 5.8125 10.028 5.8125 9.8125C5.8125 9.59701 5.8981 9.39035 6.05048 9.23797C6.20285 9.0856 6.40951 9 6.625 9H16.375C16.5905 9 16.7972 9.0856 16.9495 9.23797C17.1019 9.39035 17.1875 9.59701 17.1875 9.8125C17.1875 10.028 17.1019 10.2347 16.9495 10.387C16.7972 10.5394 16.5905 10.625 16.375 10.625ZM16.375 7.375H6.625C6.40951 7.375 6.20285 7.2894 6.05048 7.13702C5.8981 6.98465 5.8125 6.77799 5.8125 6.5625C5.8125 6.34701 5.8981 6.14035 6.05048 5.98798C6.20285 5.8356 6.40951 5.75 6.625 5.75H16.375C16.5905 5.75 16.7972 5.8356 16.9495 5.98798C17.1019 6.14035 17.1875 6.34701 17.1875 6.5625C17.1875 6.77799 17.1019 6.98465 16.9495 7.13702C16.7972 7.2894 16.5905 7.375 16.375 7.375Z" fill="#D8B150"/>
</svg>
