<svg width="22" height="18" viewBox="0 0 22 18" fill="none" xmlns="http://www.w3.org/2000/svg">
<path d="M19.9375 0.0625H2.0625C1.63152 0.0625 1.2182 0.233705 0.913451 0.538451C0.608705 0.843198 0.4375 1.25652 0.4375 1.6875V16.3125C0.4375 16.7435 0.608705 17.1568 0.913451 17.4615C1.2182 17.7663 1.63152 17.9375 2.0625 17.9375H19.9375C20.3685 17.9375 20.7818 17.7663 21.0865 17.4615C21.3913 17.1568 21.5625 16.7435 21.5625 16.3125V1.6875C21.5625 1.25652 21.3913 0.843198 21.0865 0.538451C20.7818 0.233705 20.3685 0.0625 19.9375 0.0625ZM15.875 13.0625H6.125C5.90951 13.0625 5.70285 12.9769 5.55048 12.8245C5.3981 12.6722 5.3125 12.4655 5.3125 12.25C5.3125 12.0345 5.3981 11.8278 5.55048 11.6755C5.70285 11.5231 5.90951 11.4375 6.125 11.4375H15.875C16.0905 11.4375 16.2972 11.5231 16.4495 11.6755C16.6019 11.8278 16.6875 12.0345 16.6875 12.25C16.6875 12.4655 16.6019 12.6722 16.4495 12.8245C16.2972 12.9769 16.0905 13.0625 15.875 13.0625ZM15.875 9.8125H6.125C5.90951 9.8125 5.70285 9.7269 5.55048 9.57452C5.3981 9.42215 5.3125 9.21549 5.3125 9C5.3125 8.78451 5.3981 8.57785 5.55048 8.42548C5.70285 8.2731 5.90951 8.1875 6.125 8.1875H15.875C16.0905 8.1875 16.2972 8.2731 16.4495 8.42548C16.6019 8.57785 16.6875 8.78451 16.6875 9C16.6875 9.21549 16.6019 9.42215 16.4495 9.57452C16.2972 9.7269 16.0905 9.8125 15.875 9.8125ZM15.875 6.5625H6.125C5.90951 6.5625 5.70285 6.4769 5.55048 6.32452C5.3981 6.17215 5.3125 5.96549 5.3125 5.75C5.3125 5.53451 5.3981 5.32785 5.55048 5.17548C5.70285 5.0231 5.90951 4.9375 6.125 4.9375H15.875C16.0905 4.9375 16.2972 5.0231 16.4495 5.17548C16.6019 5.32785 16.6875 5.53451 16.6875 5.75C16.6875 5.96549 16.6019 6.17215 16.4495 6.32452C16.2972 6.4769 16.0905 6.5625 15.875 6.5625Z" fill="#D8B150"/>
</svg>
