<svg width="23" height="22" viewBox="0 0 23 22" fill="none" xmlns="http://www.w3.org/2000/svg">
<path d="M11.5 0.4375C9.41094 0.4375 7.36879 1.05698 5.63179 2.2176C3.8948 3.37822 2.54098 5.02786 1.74153 6.95791C0.942077 8.88795 0.732904 11.0117 1.14046 13.0606C1.54802 15.1096 2.554 16.9916 4.03119 18.4688C5.50838 19.946 7.39044 20.952 9.43936 21.3595C11.4883 21.7671 13.6121 21.5579 15.5421 20.7585C17.4721 19.959 19.1218 18.6052 20.2824 16.8682C21.443 15.1312 22.0625 13.0891 22.0625 11C22.0595 8.19956 20.9458 5.51466 18.9656 3.53445C16.9853 1.55424 14.3004 0.440457 11.5 0.4375ZM17.1875 11.8125H13.4612L16.1373 14.4877C16.2128 14.5631 16.2727 14.6528 16.3136 14.7514C16.3544 14.85 16.3755 14.9557 16.3755 15.0625C16.3755 15.1693 16.3544 15.275 16.3136 15.3736C16.2727 15.4722 16.2128 15.5619 16.1373 15.6373C16.0619 15.7128 15.9722 15.7727 15.8736 15.8136C15.775 15.8544 15.6693 15.8755 15.5625 15.8755C15.4557 15.8755 15.35 15.8544 15.2514 15.8136C15.1528 15.7727 15.0631 15.7128 14.9877 15.6373L10.9252 11.5748C10.8114 11.4612 10.7339 11.3164 10.7025 11.1587C10.6711 11.001 10.6872 10.8375 10.7487 10.689C10.8103 10.5404 10.9145 10.4135 11.0483 10.3242C11.182 10.235 11.3392 10.1874 11.5 10.1875H17.1875C17.403 10.1875 17.6097 10.2731 17.762 10.4255C17.9144 10.5778 18 10.7845 18 11C18 11.2155 17.9144 11.4222 17.762 11.5745C17.6097 11.7269 17.403 11.8125 17.1875 11.8125Z" fill="#D8B150"/>
</svg>
