<svg width="20" height="20" viewBox="0 0 20 20" fill="none" xmlns="http://www.w3.org/2000/svg">
<path d="M18.125 0.25H1.875C1.44402 0.25 1.0307 0.421205 0.725951 0.725951C0.421205 1.0307 0.25 1.44402 0.25 1.875V18.125C0.25 18.556 0.421205 18.9693 0.725951 19.274C1.0307 19.5788 1.44402 19.75 1.875 19.75H18.125C18.556 19.75 18.9693 19.5788 19.274 19.274C19.5788 18.9693 19.75 18.556 19.75 18.125V1.875C19.75 1.44402 19.5788 1.0307 19.274 0.725951C18.9693 0.421205 18.556 0.25 18.125 0.25ZM4.3125 15.6875H3.5C3.28451 15.6875 3.07785 15.6019 2.92548 15.4495C2.7731 15.2972 2.6875 15.0905 2.6875 14.875C2.6875 14.6595 2.7731 14.4528 2.92548 14.3005C3.07785 14.1481 3.28451 14.0625 3.5 14.0625H4.3125C4.52799 14.0625 4.73465 14.1481 4.88702 14.3005C5.0394 14.4528 5.125 14.6595 5.125 14.875C5.125 15.0905 5.0394 15.2972 4.88702 15.4495C4.73465 15.6019 4.52799 15.6875 4.3125 15.6875ZM4.3125 10.8125H3.5C3.28451 10.8125 3.07785 10.7269 2.92548 10.5745C2.7731 10.4222 2.6875 10.2155 2.6875 10C2.6875 9.78451 2.7731 9.57785 2.92548 9.42548C3.07785 9.2731 3.28451 9.1875 3.5 9.1875H4.3125C4.52799 9.1875 4.73465 9.2731 4.88702 9.42548C5.0394 9.57785 5.125 9.78451 5.125 10C5.125 10.2155 5.0394 10.4222 4.88702 10.5745C4.73465 10.7269 4.52799 10.8125 4.3125 10.8125ZM4.3125 5.9375H3.5C3.28451 5.9375 3.07785 5.8519 2.92548 5.69952C2.7731 5.54715 2.6875 5.34049 2.6875 5.125C2.6875 4.90951 2.7731 4.70285 2.92548 4.55048C3.07785 4.3981 3.28451 4.3125 3.5 4.3125H4.3125C4.52799 4.3125 4.73465 4.3981 4.88702 4.55048C5.0394 4.70285 5.125 4.90951 5.125 5.125C5.125 5.34049 5.0394 5.54715 4.88702 5.69952C4.73465 5.8519 4.52799 5.9375 4.3125 5.9375ZM16.5 15.6875H7.5625C7.34701 15.6875 7.14035 15.6019 6.98798 15.4495C6.8356 15.2972 6.75 15.0905 6.75 14.875C6.75 14.6595 6.8356 14.4528 6.98798 14.3005C7.14035 14.1481 7.34701 14.0625 7.5625 14.0625H16.5C16.7155 14.0625 16.9222 14.1481 17.0745 14.3005C17.2269 14.4528 17.3125 14.6595 17.3125 14.875C17.3125 15.0905 17.2269 15.2972 17.0745 15.4495C16.9222 15.6019 16.7155 15.6875 16.5 15.6875ZM16.5 10.8125H7.5625C7.34701 10.8125 7.14035 10.7269 6.98798 10.5745C6.8356 10.4222 6.75 10.2155 6.75 10C6.75 9.78451 6.8356 9.57785 6.98798 9.42548C7.14035 9.2731 7.34701 9.1875 7.5625 9.1875H16.5C16.7155 9.1875 16.9222 9.2731 17.0745 9.42548C17.2269 9.57785 17.3125 9.78451 17.3125 10C17.3125 10.2155 17.2269 10.4222 17.0745 10.5745C16.9222 10.7269 16.7155 10.8125 16.5 10.8125ZM16.5 5.9375H7.5625C7.34701 5.9375 7.14035 5.8519 6.98798 5.69952C6.8356 5.54715 6.75 5.34049 6.75 5.125C6.75 4.90951 6.8356 4.70285 6.98798 4.55048C7.14035 4.3981 7.34701 4.3125 7.5625 4.3125H16.5C16.7155 4.3125 16.9222 4.3981 17.0745 4.55048C17.2269 4.70285 17.3125 4.90951 17.3125 5.125C17.3125 5.34049 17.2269 5.54715 17.0745 5.69952C16.9222 5.8519 16.7155 5.9375 16.5 5.9375Z" fill="#D8B150"/>
</svg>
