<svg width="25" height="18" viewBox="0 0 25 18" fill="none" xmlns="http://www.w3.org/2000/svg">
<path d="M18.021 5.09695V4.53125C18.021 1.98406 14.1789 0.0625 9.0835 0.0625C3.98811 0.0625 0.145996 1.98406 0.145996 4.53125V8.59375C0.145996 10.7154 2.81201 12.4013 6.646 12.9061V13.4688C6.646 16.0159 10.4881 17.9375 15.5835 17.9375C20.6789 17.9375 24.521 16.0159 24.521 13.4688V9.40625C24.521 7.30391 21.9393 5.61594 18.021 5.09695ZM5.021 10.9165C3.03139 10.3609 1.771 9.44586 1.771 8.59375V7.16477C2.59975 7.7518 3.70982 8.22508 5.021 8.54297V10.9165ZM13.146 8.54297C14.4572 8.22508 15.5672 7.7518 16.396 7.16477V8.59375C16.396 9.44586 15.1356 10.3609 13.146 10.9165V8.54297ZM11.521 15.7915C9.53139 15.2359 8.271 14.3209 8.271 13.4688V13.0452C8.53811 13.0554 8.80826 13.0625 9.0835 13.0625C9.47756 13.0625 9.86248 13.0493 10.2403 13.027C10.66 13.1772 11.0875 13.3047 11.521 13.4088V15.7915ZM11.521 11.2598C10.714 11.379 9.89927 11.4384 9.0835 11.4375C8.26773 11.4384 7.45301 11.379 6.646 11.2598V8.84359C7.45421 8.9489 8.26845 9.00115 9.0835 9C9.89854 9.00115 10.7128 8.9489 11.521 8.84359V11.2598ZM18.021 16.1348C16.4046 16.3717 14.7624 16.3717 13.146 16.1348V13.7125C13.9539 13.8211 14.7683 13.8754 15.5835 13.875C16.3985 13.8762 17.2128 13.8239 18.021 13.7186V16.1348ZM22.896 13.4688C22.896 14.3209 21.6356 15.2359 19.646 15.7915V13.418C20.9572 13.1001 22.0672 12.6268 22.896 12.0398V13.4688Z" fill="#D8B150"/>
</svg>
