<svg width="18" height="15" viewBox="0 0 18 15" fill="none" xmlns="http://www.w3.org/2000/svg">
<path d="M16.875 13.1252H15.75V8.06268L15.9145 8.22721C16.0203 8.33276 16.1636 8.39198 16.313 8.39185C16.4624 8.39172 16.6056 8.33224 16.7112 8.22651C16.8167 8.12078 16.8759 7.97744 16.8758 7.82805C16.8757 7.67865 16.8162 7.53542 16.7105 7.42987L9.79523 0.516744C9.58428 0.305925 9.29824 0.1875 9 0.1875C8.70176 0.1875 8.41572 0.305925 8.20477 0.516744L1.28953 7.42987C1.18408 7.53542 1.12487 7.67853 1.12494 7.82774C1.125 7.97694 1.18433 8.12 1.28988 8.22546C1.39543 8.33091 1.53855 8.39012 1.68775 8.39005C1.83695 8.38999 1.98001 8.33065 2.08547 8.2251L2.25 8.06268V13.1252H1.125C0.975816 13.1252 0.832742 13.1844 0.727252 13.2899C0.621763 13.3954 0.5625 13.5385 0.5625 13.6877C0.5625 13.8369 0.621763 13.9799 0.727252 14.0854C0.832742 14.1909 0.975816 14.2502 1.125 14.2502H16.875C17.0242 14.2502 17.1673 14.1909 17.2727 14.0854C17.3782 13.9799 17.4375 13.8369 17.4375 13.6877C17.4375 13.5385 17.3782 13.3954 17.2727 13.2899C17.1673 13.1844 17.0242 13.1252 16.875 13.1252ZM3.375 6.93768L9 1.31268L14.625 6.93768V13.1252H11.25V9.18768C11.25 9.0385 11.1907 8.89542 11.0852 8.78994C10.9798 8.68445 10.8367 8.62518 10.6875 8.62518H7.3125C7.16332 8.62518 7.02024 8.68445 6.91475 8.78994C6.80926 8.89542 6.75 9.0385 6.75 9.18768V13.1252H3.375V6.93768ZM10.125 13.1252H7.875V9.75018H10.125V13.1252Z" fill="#454545"/>
</svg>
