<svg width="22" height="23" viewBox="0 0 22 23" fill="none" xmlns="http://www.w3.org/2000/svg">
<path d="M20.7501 6.22151C20.5588 6.32056 20.336 6.33961 20.1307 6.27447C19.9254 6.20934 19.7544 6.06536 19.6552 5.87417C18.8797 4.34209 17.7058 3.04718 16.2569 2.1255C16.1666 2.06855 16.0884 1.99437 16.0268 1.9072C15.9652 1.82003 15.9213 1.72158 15.8978 1.61746C15.8742 1.51334 15.8713 1.4056 15.8894 1.30038C15.9075 1.19517 15.9461 1.09454 16.003 1.00425C16.06 0.913955 16.1342 0.835762 16.2213 0.774135C16.3085 0.712508 16.4069 0.668654 16.5111 0.645077C16.6152 0.6215 16.7229 0.618661 16.8281 0.636722C16.9334 0.654784 17.034 0.693392 17.1243 0.750342C18.8129 1.83151 20.184 3.34177 21.0974 5.12667C21.1964 5.31793 21.2155 5.54069 21.1504 5.74599C21.0852 5.95129 20.9412 6.12233 20.7501 6.22151ZM1.62686 6.31292C1.77571 6.31286 1.92169 6.27191 2.04885 6.19453C2.17601 6.11716 2.27948 6.00634 2.34795 5.87417C3.12348 4.34209 4.29736 3.04718 5.74623 2.1255C5.92859 2.01048 6.05779 1.82773 6.1054 1.61746C6.15302 1.40718 6.11515 1.18661 6.00014 1.00425C5.88512 0.821892 5.70237 0.692694 5.4921 0.645077C5.28182 0.59746 5.06125 0.635325 4.87889 0.750342C3.19031 1.83151 1.8192 3.34177 0.905763 5.12667C0.841614 5.25049 0.810415 5.38875 0.81517 5.52812C0.819924 5.66749 0.860471 5.8033 0.932909 5.92246C1.00535 6.04163 1.10724 6.14014 1.22877 6.20853C1.35031 6.27691 1.4874 6.31286 1.62686 6.31292ZM20.5276 16.8693C20.6716 17.1162 20.7479 17.3966 20.7489 17.6823C20.7499 17.9681 20.6755 18.249 20.5332 18.4969C20.391 18.7447 20.1859 18.9506 19.9387 19.0939C19.6914 19.2372 19.4108 19.3127 19.1251 19.3129H14.9813C14.7948 20.2313 14.2966 21.0569 13.571 21.65C12.8454 22.243 11.9372 22.567 11.0001 22.567C10.063 22.567 9.15467 22.243 8.4291 21.65C7.70353 21.0569 7.20529 20.2313 7.01881 19.3129H2.87506C2.58949 19.3124 2.30911 19.2365 2.06216 19.0931C1.81521 18.9497 1.61042 18.7437 1.46842 18.496C1.32641 18.2482 1.25221 17.9674 1.25328 17.6818C1.25435 17.3963 1.33066 17.116 1.47451 16.8693C2.38959 15.29 2.87506 13.0445 2.87506 10.3754C2.87506 8.22054 3.73108 6.15391 5.25482 4.63018C6.77855 3.10644 8.84518 2.25042 11.0001 2.25042C13.1549 2.25042 15.2216 3.10644 16.7453 4.63018C18.269 6.15391 19.1251 8.22054 19.1251 10.3754C19.1251 13.0435 19.6105 15.289 20.5276 16.8693ZM13.2974 19.3129H8.70272C8.87105 19.7876 9.18231 20.1985 9.59369 20.4892C10.0051 20.7798 10.4964 20.9358 11.0001 20.9358C11.5037 20.9358 11.995 20.7798 12.4064 20.4892C12.8178 20.1985 13.1291 19.7876 13.2974 19.3129Z" fill="#D8B150"/>
</svg>
