<svg width="22" height="22" viewBox="0 0 22 22" fill="none" xmlns="http://www.w3.org/2000/svg">
<path d="M11 0.4375C8.91094 0.4375 6.86879 1.05698 5.13179 2.2176C3.3948 3.37822 2.04098 5.02786 1.24153 6.95791C0.442077 8.88795 0.232904 11.0117 0.64046 13.0606C1.04802 15.1096 2.054 16.9916 3.53119 18.4688C5.00838 19.946 6.89044 20.952 8.93936 21.3595C10.9883 21.7671 13.1121 21.5579 15.0421 20.7585C16.9721 19.959 18.6218 18.6052 19.7824 16.8682C20.943 15.1312 21.5625 13.0891 21.5625 11C21.5595 8.19956 20.4458 5.51466 18.4656 3.53445C16.4853 1.55424 13.8004 0.440457 11 0.4375ZM14.8248 5.55016C14.7494 5.47461 14.6598 5.41468 14.5611 5.3738C14.4625 5.33291 14.3568 5.31186 14.25 5.31186C14.1432 5.31186 14.0375 5.33291 13.9389 5.3738C13.8402 5.41468 13.7506 5.47461 13.6752 5.55016L6.84508 12.5234C6.61835 12.7496 6.43837 13.0182 6.31543 13.3138C6.1925 13.6095 6.129 13.9265 6.12858 14.2468C6.12815 14.567 6.19081 14.8842 6.31296 15.1802C6.43511 15.4762 6.61438 15.7453 6.84051 15.972C7.06665 16.1987 7.33523 16.3787 7.63092 16.5016C7.92661 16.6246 8.24362 16.6881 8.56384 16.6885C8.88407 16.6889 9.20125 16.6263 9.49726 16.5041C9.79327 16.382 10.0623 16.2027 10.2891 15.9766L15.2981 10.8659C15.3721 10.7868 15.4612 10.7233 15.5601 10.6791C15.659 10.6349 15.7657 10.611 15.874 10.6086C15.9823 10.6063 16.09 10.6256 16.1907 10.6655C16.2914 10.7054 16.3831 10.765 16.4604 10.8409C16.5378 10.9167 16.5992 11.0072 16.641 11.1072C16.6828 11.2071 16.7043 11.3144 16.704 11.4227C16.7038 11.531 16.6819 11.6382 16.6397 11.7379C16.5974 11.8376 16.5356 11.9279 16.458 12.0034L11.4438 17.1202C11.0685 17.5047 10.6207 17.8109 10.1262 18.0212C9.63175 18.2314 9.10049 18.3415 8.5632 18.345C8.0259 18.3485 7.49325 18.2454 6.99607 18.0416C6.4989 17.8379 6.04708 17.5375 5.66678 17.158C5.28647 16.7784 4.98524 16.3272 4.78053 15.8304C4.57581 15.3336 4.47167 14.8012 4.47415 14.2639C4.47662 13.7266 4.58565 13.1951 4.79493 12.7002C5.00421 12.2053 5.30958 11.7569 5.69336 11.3809L12.5234 4.40758C12.7496 4.18084 13.0182 4.00087 13.3138 3.87793C13.6095 3.75499 13.9265 3.6915 14.2468 3.69107C14.567 3.69065 14.8842 3.7533 15.1802 3.87546C15.4762 3.99761 15.7453 4.17687 15.972 4.40301C16.1987 4.62914 16.3787 4.89772 16.5016 5.19341C16.6246 5.4891 16.6881 5.80611 16.6885 6.12634C16.6889 6.44657 16.6263 6.76374 16.5041 7.05976C16.382 7.35577 16.2027 7.62483 15.9766 7.85156L9.14243 14.8187C9.06843 14.8979 8.97937 14.9614 8.88048 15.0056C8.78158 15.0497 8.67485 15.0737 8.56655 15.076C8.45826 15.0784 8.35059 15.059 8.24988 15.0192C8.14917 14.9793 8.05745 14.9197 7.98012 14.8438C7.90279 14.768 7.8414 14.6774 7.79957 14.5775C7.75773 14.4776 7.7363 14.3703 7.73653 14.262C7.73676 14.1537 7.75865 14.0465 7.8009 13.9468C7.84316 13.847 7.90493 13.7568 7.98258 13.6812L14.8188 6.70492C14.8955 6.62977 14.9565 6.54017 14.9984 6.44128C15.0402 6.34239 15.0621 6.23619 15.0627 6.12881C15.0632 6.02143 15.0425 5.915 15.0017 5.81568C14.9609 5.71635 14.9008 5.62611 14.8248 5.55016Z" fill="#D8B150"/>
</svg>
