<svg width="26" height="22" viewBox="0 0 26 22" fill="none" xmlns="http://www.w3.org/2000/svg">
<path d="M24.3477 20.1251H22.7501V8.75007C22.7501 8.31909 22.5789 7.90577 22.2741 7.60102C21.9694 7.29628 21.5561 7.12507 21.1251 7.12507H16.6563C16.5486 7.12507 16.4453 7.16787 16.3691 7.24406C16.2929 7.32025 16.2501 7.42358 16.2501 7.53132V20.1251H14.6251V2.29171C14.6278 2.0386 14.5728 1.78819 14.4644 1.55945C14.3561 1.3307 14.197 1.12961 13.9995 0.9714C13.7301 0.761406 13.4015 0.641613 13.0602 0.629033C12.7189 0.616453 12.3823 0.711726 12.0982 0.901322L3.9732 6.31257C3.75031 6.46128 3.56765 6.6628 3.44149 6.89918C3.31532 7.13556 3.24957 7.39947 3.25008 7.66741V20.1251H1.6525C1.44253 20.122 1.23918 20.1985 1.08336 20.3392C0.927527 20.48 0.83078 20.6745 0.812576 20.8837C0.805197 20.9949 0.820747 21.1064 0.858262 21.2112C0.895777 21.3161 0.954455 21.4121 1.03065 21.4934C1.10685 21.5746 1.19893 21.6393 1.30119 21.6835C1.40345 21.7277 1.51369 21.7503 1.62508 21.7501H24.3751C24.4865 21.7503 24.5967 21.7277 24.699 21.6835C24.8012 21.6393 24.8933 21.5746 24.9695 21.4934C25.0457 21.4121 25.1044 21.3161 25.1419 21.2112C25.1794 21.1064 25.195 20.9949 25.1876 20.8837C25.1694 20.6745 25.0726 20.48 24.9168 20.3392C24.761 20.1985 24.5576 20.122 24.3477 20.1251ZM7.71883 17.6876C7.71907 17.799 7.69641 17.9092 7.65226 18.0115C7.6081 18.1137 7.54339 18.2058 7.46215 18.282C7.3809 18.3582 7.28486 18.4169 7.17998 18.4544C7.07511 18.4919 6.96364 18.5075 6.8525 18.5001C6.64312 18.4819 6.44843 18.385 6.30765 18.2289C6.16687 18.0729 6.09047 17.8693 6.09383 17.6591V16.09C6.09096 15.8801 6.16757 15.6769 6.30828 15.5211C6.44899 15.3653 6.64339 15.2685 6.8525 15.2501C6.96364 15.2427 7.07511 15.2582 7.17998 15.2958C7.28486 15.3333 7.3809 15.3919 7.46215 15.4681C7.54339 15.5443 7.6081 15.6364 7.65226 15.7387C7.69641 15.8409 7.71907 15.9512 7.71883 16.0626V17.6876ZM7.71883 12.0001C7.71907 12.1115 7.69641 12.2217 7.65226 12.324C7.6081 12.4262 7.54339 12.5183 7.46215 12.5945C7.3809 12.6707 7.28486 12.7294 7.17998 12.7669C7.07511 12.8044 6.96364 12.82 6.8525 12.8126C6.64321 12.7941 6.44866 12.6972 6.30793 12.5412C6.1672 12.3852 6.09071 12.1817 6.09383 11.9716V10.4025C6.09096 10.1926 6.16757 9.98938 6.30828 9.8336C6.44899 9.67782 6.64339 9.58101 6.8525 9.56257C6.96364 9.55519 7.07511 9.57074 7.17998 9.60826C7.28486 9.64577 7.3809 9.70445 7.46215 9.78065C7.54339 9.85684 7.6081 9.94893 7.65226 10.0512C7.69641 10.1534 7.71907 10.2637 7.71883 10.3751V12.0001ZM11.7813 17.6876C11.7816 17.799 11.7589 17.9092 11.7148 18.0115C11.6706 18.1137 11.6059 18.2058 11.5246 18.282C11.4434 18.3582 11.3474 18.4169 11.2425 18.4544C11.1376 18.4919 11.0261 18.5075 10.915 18.5001C10.706 18.4819 10.5116 18.3853 10.3709 18.2297C10.2301 18.0741 10.1535 17.871 10.1563 17.6612V16.09C10.1537 15.8803 10.2304 15.6773 10.3711 15.5217C10.5118 15.3662 10.7061 15.2695 10.915 15.2511C11.0261 15.2437 11.1376 15.2593 11.2425 15.2968C11.3474 15.3343 11.4434 15.393 11.5246 15.4692C11.6059 15.5454 11.6706 15.6374 11.7148 15.7397C11.7589 15.842 11.7816 15.9522 11.7813 16.0636V17.6876ZM11.7813 12.0001C11.7816 12.1115 11.7589 12.2217 11.7148 12.324C11.6706 12.4262 11.6059 12.5183 11.5246 12.5945C11.4434 12.6707 11.3474 12.7294 11.2425 12.7669C11.1376 12.8044 11.0261 12.82 10.915 12.8126C10.7061 12.7941 10.5118 12.6975 10.3711 12.5419C10.2304 12.3864 10.1537 12.1834 10.1563 11.9737V10.4025C10.1537 10.1928 10.2304 9.9898 10.3711 9.83424C10.5118 9.67868 10.7061 9.58201 10.915 9.56359C11.0261 9.55621 11.1376 9.57176 11.2425 9.60927C11.3474 9.64679 11.4434 9.70547 11.5246 9.78166C11.6059 9.85786 11.6706 9.94994 11.7148 10.0522C11.7589 10.1545 11.7816 10.2647 11.7813 10.3761V12.0001Z" fill="#D89F13" fill-opacity="0.9"/>
</svg>
